<svg xmlns="http://www.w3.org/2000/svg" viewBox="0 0 1887.75 475.93"><defs><style>.cls-1{fill:#eabe39;}.cls-1,.cls-2,.cls-3{fill-rule:evenodd;}.cls-2{fill:#ca8e0e;}.cls-3{fill:#403e3d;}</style></defs><title>BR-Lt-HzSVG</title><g id="Слой_2" data-name="Слой 2"><g id="Слой_1-2" data-name="Слой 1"><g id="BR-Lt-Hz"><polygon class="cls-1" points="431.08 351.48 216.09 226.72 0 351.48 215.54 475.93 431.08 351.48"/><path class="cls-2" d="M352.77,259.77h0c0-6.85-4.53-9.83-10.08-6.62l-16.32,9.42c-5.55,3.21-10.11,11.44-10.12,18.29h0c0,6.85,4.53,9.83,10.09,6.62l16.31-9.42c5.56-3.21,10.12-11.44,10.12-18.29m56.65-32.7h0c0-6.85-4.53-9.83-10.09-6.62L379.66,231.8c-5.56,3.21-10.11,11.44-10.12,18.29h0c0,6.85,4.53,9.83,10.09,6.62l19.67-11.35C404.86,242.15,409.41,233.92,409.42,227.07Zm17.31-109.46v-.2c0-6.79-4.5-9.75-10-6.56s-10,11.35-10.05,18.14v.19c0,6.8,4.5,9.76,10,6.57S426.72,124.4,426.73,117.61ZM406.64,154h0c0-6.85-4.53-9.83-10.09-6.62l-10.23,5.9c-5.55,3.21-10.11,11.44-10.12,18.29s4.53,9.83,10.09,6.62l10.23-5.9C402.08,169.08,406.63,160.85,406.64,154ZM367.5,375.68h0c0-6.85-4.54-9.83-10.09-6.62L338.54,380c-5.56,3.21-10.11,11.44-10.12,18.29s4.53,9.83,10.09,6.62L357.38,394C362.93,390.76,367.49,382.53,367.5,375.68ZM421,319.9h0c0-6.85-4.53-9.83-10.09-6.62l-10.23,5.91c-5.56,3.2-10.11,11.43-10.12,18.28s4.53,9.83,10.09,6.62l10.23-5.9C416.44,335,421,326.75,421,319.9Zm-53.47,31v-.19c0-6.8-4.5-9.76-10-6.57s-10,11.35-10,18.14v.2c0,6.79,4.5,9.75,10,6.56S367.52,357.66,367.53,350.87Zm25.05-39.45h0c0-6.85-4.54-9.83-10.09-6.62l-10.23,5.9c-5.56,3.21-10.12,11.44-10.12,18.29s4.53,9.83,10.09,6.62l10.22-5.9C388,326.5,392.57,318.27,392.58,311.42Zm-111.71,52,44.66-25.78c-5.55,3.21-10.11,11.44-10.12,18.29s4.54,9.83,10.09,6.62l-44.66,25.78c5.56-3.21,10.12-11.44,10.12-18.29h0C291,363.23,286.43,360.26,280.87,363.46ZM429.14,240.62v-.19c0-6.8-4.5-9.76-10-6.57s-10,11.35-10,18.15v.19c0,6.8,4.5,9.75,10,6.57S429.14,247.42,429.14,240.62Zm-9.85-68.94v-.19c0-6.8-4.5-9.75-10-6.57s-10,11.35-10,18.15v.19c0,6.8,4.5,9.76,10,6.57S419.28,178.48,419.29,171.68Zm-46.43,51.7v-.19c0-6.8-4.5-9.76-10-6.57s-10,11.35-10,18.15V235c0,6.79,4.49,9.75,10,6.57S372.85,230.18,372.86,223.38ZM294.71,256l-28.89,16.68c5.56-3.21,10.11-11.44,10.12-18.29s-4.53-9.83-10.09-6.62l28.89-16.68c5.52-3.19,10-.23,10,6.57v.19C304.75,244.61,300.23,252.77,294.71,256Zm98.57,104.93v-.19c0-6.8-4.5-9.76-10-6.57s-10,11.35-10,18.15v.19c0,6.79,4.5,9.75,10,6.57S393.27,367.69,393.28,360.89Zm10.12-80.52v-.19c0-6.79-4.5-9.75-10-6.57s-10,11.35-10.05,18.15V292c0,6.8,4.5,9.76,10,6.57S403.39,287.17,403.4,280.37Zm37.72,53v-.19c0-6.79-4.49-9.75-10-6.57s-10,11.36-10,18.15v.19c0,6.8,4.5,9.76,10,6.57S441.12,340.13,441.12,333.33ZM275.88,304.16h0c0-6.85-4.53-9.82-10.09-6.62l45.41-26.21c5.56-3.21,10.12-11.44,10.12-18.29s-4.53-9.83-10.09-6.62L294.71,256c-5.51,3.18-10,.23-10-6.57v-.19c0-6.8,4.53-15,10-18.15l30.95-17.87c-5.56,3.21-10.11,11.44-10.12,18.29h0c0,6.85,4.53,9.83,10.09,6.62l13.93-8c5.56-3.21,10.11-11.44,10.12-18.29h0c0-6.85-4.53-9.83-10.09-6.62l10.21-5.9C355.39,196,360,187.8,360,181h0c0-6.85-4.54-9.83-10.09-6.62l2.73-1.58c5.56-3.2,10.12-11.43,10.12-18.28s-4.53-9.83-10.09-6.62L330,160.94c-5.56,3.2-10.12,11.44-10.12,18.28s4.53,9.83,10.09,6.62l-42.61,24.61c5.16-3.53,9.26-11.26,9.26-17.75,0-6.85-4.54-9.83-10.09-6.62l-33.75,19.48L226.2,220.89l-10.11,5.83v12.46h0l0,24.86h0L216,289l0,24.91h0l0,24.9h0l0,24.91h0l0,24.86,0,24.91h0l0,24.91,0,24.91h0v12.45l10.1-5.83,26.55-15.33,48.77-28.15c5.55-3.21,10.11-11.44,10.12-18.29h0c0-6.85-4.54-9.83-10.09-6.62l24.33-14.05c5.56-3.21,10.11-11.44,10.12-18.29s-4.53-9.83-10.09-6.62l5.82-3.36c5.56-3.21,10.11-11.44,10.12-18.29s-4.53-9.83-10.09-6.62l15.37-8.87c5.56-3.21,10.11-11.44,10.12-18.29h0c0-6.85-4.53-9.83-10.09-6.62l21.44-12.38c5.56-3.21,10.11-11.44,10.12-18.29h0c0-6.85-4.53-9.83-10.09-6.62l-22.67,13.09c-5.56,3.21-10.11,11.44-10.12,18.29h0c0,6.85,4.53,9.83,10.09,6.62l-34.19,19.74c-5.51,3.18-10,.23-10-6.57v-.19c0-6.8,4.53-15,10-18.15s10-.23,10,6.57v.19c0,6.8-4.53,15-10.05,18.15l-29.67,17.13c5.16-3.52,9.26-11.25,9.26-17.75h0c0-6.85-4.53-9.83-10.08-6.62l-15.18,8.76C271.32,319.24,275.87,311,275.88,304.16Z"/><path class="cls-3" d="M151.71,251.45h0c0-6.85-4.53-9.83-10.09-6.62l-18.87,10.89c-5.56,3.21-10.11,11.44-10.12,18.29s4.53,9.83,10.09,6.62l18.87-10.89c5.56-3.21,10.11-11.44,10.12-18.29M177,204.21a21.78,21.78,0,0,0-2.22,9h0c0,6.85,4.53,9.83,10.09,6.62l9.64-5.57-10.75-6.19h0Zm-25.25,22.42v-.19c0-6.79-4.5-9.75-10-6.57s-10,11.36-10,18.15v.19c0,6.8,4.5,9.76,10,6.57S151.73,233.43,151.74,226.63ZM152.3,190c-3.5,4-5.94,9.75-6,14.77,0,6.85,4.53,9.83,10.09,6.62l10.23-5.91a17.6,17.6,0,0,0,4.89-4.39l-9.39-5.41h0Zm-5.24-97.6h0c-.32.18-.63.38-.94.58L148,91.91C147.68,92.05,147.37,92.21,147.06,92.39Zm30.43,144.27v-.19c0-6.8-4.49-9.76-10-6.57s-10,11.35-10,18.14v.2c0,6.79,4.5,9.75,10,6.56S177.49,243.45,177.49,236.66ZM60.1,179.93h0c0-6.85-4.54-9.83-10.09-6.62l36.6-21.13L75.86,146h0L54.27,133.56h0L32.69,121.13h0L11.1,108.7h0L.31,102.49l0,12.45,0,24.87h0l0,24.9,0,24.91h0l0,24.91,0,24.91h0l0,24.86,0,24.91h0l0,24.91L0,339H0l0,12.45,10.11-5.83,26.54-15.33,48.77-28.15C91,299,95.53,290.73,95.54,283.88h0c0-6.85-4.53-9.83-10.09-6.62l24.33-14.05c5.56-3.21,10.11-11.44,10.12-18.29h0c0-6.85-4.53-9.83-10.09-6.62l5.83-3.36c5.55-3.21,10.11-11.44,10.12-18.29s-4.54-9.83-10.09-6.62L131,201.16c5.37-3.1,9.81-10.89,10.11-17.59l-.56-.32h0L129.75,177,95.65,196.7c-5.52,3.18-10,.23-10-6.57v-.19c0-6.8,4.53-15,10.05-18.15s10-.23,10,6.57v.19c0,6.8-4.53,15-10,18.15L66,213.83c5.16-3.52,9.25-11.26,9.26-17.75,0-6.85-4.53-9.83-10.09-6.62L50,198.22C55.53,195,60.09,186.78,60.1,179.93Z"/><path class="cls-1" d="M255.81,91.83h0c5.94,3.41,6.25,8.84.69,12l-16.31,9.42c-5.56,3.21-15,3-20.9-.38h0c-5.94-3.42-6.25-8.84-.69-12l16.31-9.41c5.56-3.21,15-3,20.9.38m56.65-32.71h0c5.93,3.42,6.24,8.84.69,12.05L293.47,82.53c-5.55,3.21-15,3-20.89-.38h0c-5.94-3.42-6.25-8.84-.69-12.05l19.67-11.36C297.12,55.53,306.52,55.7,312.46,59.12Zm87.1,50.7.17.1c5.89,3.38,6.2,8.77.68,12s-14.85,3-20.74-.37l-.16-.1c-5.89-3.4-6.2-8.77-.68-12S393.67,106.43,399.56,109.82ZM374.35,98.06h0c5.93,3.42,6.24,8.84.69,12L364.81,116c-5.56,3.2-15,3-20.9-.38h0c-5.94-3.42-6.25-8.84-.69-12l10.23-5.91C359,94.47,368.41,94.64,374.35,98.06ZM162.79,21.12h0c5.94,3.42,6.25,8.84.69,12.05L144.61,44.06c-5.56,3.21-15,3-20.9-.38h0c-5.93-3.41-6.24-8.83-.68-12l18.86-10.9C147.45,17.53,156.86,17.7,162.79,21.12ZM237.85,2.68h0c5.94,3.42,6.25,8.84.69,12.05l-10.23,5.9c-5.56,3.21-15,3-20.9-.38h0c-5.94-3.41-6.25-8.84-.69-12L217,2.3C222.51-.91,231.91-.74,237.85,2.68ZM184.3,33.5l.16.1c5.89,3.39,6.2,8.77.69,11.95s-14.85,3-20.74-.37l-.17-.1c-5.89-3.39-6.2-8.77-.68-11.95S178.41,30.11,184.3,33.5Zm46.68-2h0c5.94,3.42,6.25,8.84.69,12l-10.23,5.91c-5.56,3.21-15,3-20.9-.38h0c-5.93-3.42-6.24-8.84-.68-12l10.23-5.91C215.64,28,225.05,28.12,231,31.53ZM130.06,102.25l44.66-25.79c-5.56,3.21-15,3-20.9-.38h0c-5.93-3.41-6.24-8.84-.69-12L108.47,89.82c5.56-3.21,15-3,20.9.38h0C135.31,93.62,135.62,99,130.06,102.25Zm180.52-67,.17.1c5.89,3.39,6.2,8.77.68,12s-14.85,3-20.74-.38l-.16-.1c-5.89-3.39-6.2-8.77-.69-12S304.69,31.87,310.58,35.26Zm54.78,43,.16.09c5.89,3.39,6.2,8.77.68,12s-14.84,3-20.73-.38l-.17-.09c-5.89-3.4-6.2-8.78-.68-12S359.47,74.88,365.36,78.27Zm-68,14.36.17.09c5.89,3.39,6.2,8.77.68,12s-14.85,3-20.74-.38l-.16-.09c-5.89-3.4-6.2-8.78-.69-12S291.48,89.24,297.37,92.63ZM230.08,144,201.19,160.7c5.56-3.21,15-3,20.9.38h0c5.94,3.41,6.25,8.84.69,12l28.89-16.68c5.52-3.18,5.21-8.56-.68-11.95l-.17-.1C244.93,141,235.6,140.83,230.08,144ZM188.5,6.19l.16.09c5.89,3.4,6.2,8.78.68,12s-14.84,3-20.74-.38l-.16-.09c-5.89-3.39-6.2-8.77-.68-12S182.6,2.8,188.5,6.19Zm74.78,31.49.17.1c5.89,3.39,6.2,8.77.68,11.95s-14.85,3-20.74-.37l-.16-.1c-5.89-3.39-6.2-8.77-.69-11.95S257.39,34.29,263.28,37.68Zm-84.36,98.54h0c5.94,3.42,6.25,8.84.69,12.05L225,122.05c5.56-3.21,15-3,20.9.38h0c5.93,3.42,6.24,8.84.69,12L230.08,144c-5.51,3.18-5.2,8.56.69,11.95l.16.1c5.89,3.39,15.22,3.56,20.74.37l30.94-17.86c-5.55,3.21-15,3-20.89-.38h0c-5.94-3.42-6.25-8.84-.69-12l13.93-8c5.56-3.21,15-3,20.9.38h0c5.94,3.41,6.25,8.84.69,12l23.73-13.69c5.55-3.21,15-3,20.89.37h0c5.93,3.42,6.24,8.84.68,12l2.74-1.58c5.55-3.2,15-3,20.89.38h0c5.93,3.42,6.24,8.84.68,12.05L343.51,153.2c-5.56,3.21-15,3-20.9-.38h0c-5.93-3.42-6.24-8.84-.69-12l-31.28,18.07c5.63-2.71,14.37-2.39,20,.85h0c5.93,3.42,6.24,8.84.69,12.05l-58.59,33.82L226.2,220.89l-10.11,5.83-10.79-6.21h0L183.75,208.1h0l-21.58-12.43h0l-21.59-12.42h0L119,170.82h0L97.41,158.39h0L75.86,146h0L54.27,133.56h0L32.69,121.13h0L11.1,108.7h0L.31,102.49l10.1-5.83L37,81.33,85.72,53.17c5.56-3.21,15-3,20.9.38h0c5.94,3.42,6.25,8.84.69,12l24.33-14c5.56-3.21,15-3,20.9.38h0c5.94,3.42,6.25,8.84.69,12l5.82-3.36c5.56-3.21,15-3,20.9.38h0c5.94,3.42,6.25,8.84.69,12L196,64.17c5.55-3.2,15-3,20.89.38h0c5.93,3.42,6.24,8.84.68,12L239,64.22c5.56-3.21,15-3,20.9.38h0c5.94,3.42,6.25,8.84.69,12.05L238,89.74c-5.56,3.21-15,3-20.9-.38h0c-5.94-3.42-6.25-8.84-.69-12L182.18,97.05c-5.52,3.18-5.21,8.56.68,12l.16.09c5.9,3.39,15.23,3.56,20.74.38s5.21-8.57-.68-12l-.16-.09c-5.9-3.4-15.23-3.57-20.74-.38l-29.67,17.13c5.63-2.71,14.37-2.39,20,.85h0c5.93,3.42,6.24,8.84.68,12L158,135.84C163.58,132.63,173,132.8,178.92,136.22Z"/><path class="cls-3" d="M614.35,283.09h0q24.57,0,24.57-16.77t-24.57-16.77H575.14v33.54Zm-39.21-97.8h0v31.89h32.13q23.61,0,23.62-16.06,0-15.83-23.62-15.83ZM719,151.51h28.18a10.1,10.1,0,0,1,10.1,10.1V306.78a10.11,10.11,0,0,1-10.1,10.1H720.6a10.1,10.1,0,0,1-10.1-10.1V160A8.51,8.51,0,0,1,719,151.51ZM947.92,160V307.2a9.69,9.69,0,0,1-9.68,9.68H914a9.68,9.68,0,0,1-7.45-3.51l-70.1-84.61V307.2a9.68,9.68,0,0,1-9.68,9.68H800.27a9.69,9.69,0,0,1-9.69-9.68V161.65a10.14,10.14,0,0,1,10.14-10.14h23.61a10.14,10.14,0,0,1,7.8,3.67l70,84.45v-78a10.14,10.14,0,0,1,10.14-10.14h27.18A8.51,8.51,0,0,1,947.92,160Zm130.16,90.25h0l-21.26-52.92-21.26,52.92Zm13.71,34.49h-69.93l-11,27.29a7.74,7.74,0,0,1-7.17,4.84H973A7.73,7.73,0,0,1,965.94,306l66.17-149.9a7.74,7.74,0,0,1,7.07-4.61h36a7.73,7.73,0,0,1,7.07,4.6L1148.63,306a7.74,7.74,0,0,1-7.07,10.87H1110a7.75,7.75,0,0,1-7.17-4.84Zm-435.86-54.1q14.18,5,22.21,15.47t8,25.4q0,21.74-17.48,33.54t-50.56,11.82H539.28a10.44,10.44,0,0,1-10.44-10.44V162a10.43,10.43,0,0,1,10.44-10.44h74.13q31.65,0,48.19,11.69t16.54,31.54a39.25,39.25,0,0,1-5.79,21.14A40.4,40.4,0,0,1,655.93,230.65Z"/><path class="cls-2" d="M1268.49,212.7h0q0-11.58-7.32-18t-21.74-6.38h-26v48.43h26q14.41,0,21.74-6.26t7.32-17.83M1239,272.94h-25.51v34.14a9.8,9.8,0,0,1-9.8,9.8h-27.18a9.8,9.8,0,0,1-9.8-9.8V161a9.52,9.52,0,0,1,9.52-9.52h66.08q22.44,0,39,7.44t25.51,21.26q9,13.83,9,32.49,0,17.94-8.39,31.3t-24,20.9l28.15,41a7,7,0,0,1-5.78,11h-33.08a7,7,0,0,1-5.78-3.06Zm605.35-43.71h0L1804.51,296a9.36,9.36,0,0,1-8,4.57h-10.22a9.38,9.38,0,0,1-8-4.47l-39.54-64.51v75.92a9.38,9.38,0,0,1-9.37,9.37h-24.49a9.37,9.37,0,0,1-9.37-9.37V160.88a9.36,9.36,0,0,1,9.37-9.37h23.87a9.35,9.35,0,0,1,8,4.5L1792.1,247l54-90.86a9.37,9.37,0,0,1,8.06-4.58H1878a9.38,9.38,0,0,1,9.37,9.34l.42,146.63a9.38,9.38,0,0,1-9.37,9.4h-25.14a8.51,8.51,0,0,1-8.51-8.5Zm-432.57,49.93h0a45,45,0,1,0-45-45A45,45,0,0,0,1411.74,279.16Zm0,41h0a86,86,0,1,1,86-86A86,86,0,0,1,1411.74,320.18Zm180.91-41h0a45,45,0,1,0-45-45A45,45,0,0,0,1592.65,279.16Zm0,41h0a86,86,0,1,1,86-86A86,86,0,0,1,1592.65,320.18Z"/></g></g></g></svg>